<svg width="47" height="46" viewBox="0 0 47 46" fill="none" xmlns="http://www.w3.org/2000/svg">
<path fill-rule="evenodd" clip-rule="evenodd" d="M9.14517 29.2737C9.8344 28.878 10.7143 29.1153 11.1105 29.8035C12.3827 32.0136 14.1947 33.8659 16.3775 35.1877C18.5603 36.5094 21.0427 37.2575 23.5933 37.3622C24.3876 37.3948 25.0051 38.0643 24.9724 38.8576C24.9398 39.6508 24.2694 40.2674 23.475 40.2348C20.4387 40.1102 17.4834 39.2195 14.8848 37.646C12.2863 36.0725 10.1291 33.8674 8.6146 31.2364C8.21839 30.5481 8.45594 29.6694 9.14517 29.2737Z" fill="black" stroke="black" stroke-width="1.4375" stroke-linecap="round" stroke-linejoin="round"/>
<path fill-rule="evenodd" clip-rule="evenodd" d="M39.2831 15.2888C38.5938 15.6845 37.7139 15.4472 37.3177 14.759C36.0455 12.5489 34.2335 10.6966 32.0507 9.37483C29.8679 8.05309 27.3855 7.30497 24.8349 7.20026C24.0406 7.16765 23.4232 6.49817 23.4558 5.70493C23.4885 4.91169 24.1589 4.29508 24.9532 4.32769C27.9896 4.45234 30.9448 5.34296 33.5434 6.91646C36.142 8.48996 38.2991 10.6951 39.8136 13.3261C40.2098 14.0144 39.9723 14.8931 39.2831 15.2888Z" fill="black" stroke="black" stroke-width="1.4375" stroke-linecap="round" stroke-linejoin="round"/>
<path fill-rule="evenodd" clip-rule="evenodd" d="M11.9786 5.75C10.3886 5.75 9.09963 7.03718 9.09963 8.625C9.09963 10.2128 10.3886 11.5 11.9786 11.5C13.5685 11.5 14.8575 10.2128 14.8575 8.625C14.8575 7.03718 13.5685 5.75 11.9786 5.75ZM6.2207 8.625C6.2207 5.44936 8.79858 2.875 11.9786 2.875C15.1585 2.875 17.7364 5.44936 17.7364 8.625C17.7364 11.8006 15.1585 14.375 11.9786 14.375C8.79858 14.375 6.2207 11.8006 6.2207 8.625Z" fill="black" stroke="black" stroke-width="1.4375" stroke-linecap="round" stroke-linejoin="round"/>
<path fill-rule="evenodd" clip-rule="evenodd" d="M35.0098 21.5625C33.4198 21.5625 32.1309 22.8497 32.1309 24.4375C32.1309 26.0253 33.4198 27.3125 35.0098 27.3125C36.5998 27.3125 37.8887 26.0253 37.8887 24.4375C37.8887 22.8497 36.5998 21.5625 35.0098 21.5625ZM29.252 24.4375C29.252 21.2619 31.8298 18.6875 35.0098 18.6875C38.1898 18.6875 40.7677 21.2619 40.7677 24.4375C40.7677 27.6131 38.1898 30.1875 35.0098 30.1875C31.8298 30.1875 29.252 27.6131 29.252 24.4375Z" fill="black" stroke="black" stroke-width="1.4375" stroke-linecap="round" stroke-linejoin="round"/>
<path fill-rule="evenodd" clip-rule="evenodd" d="M11.9786 18.6875C8.7986 18.6875 6.22072 21.2619 6.22072 24.4375V25.875C6.22072 26.6689 5.57625 27.3125 4.78126 27.3125C3.98627 27.3125 3.3418 26.6689 3.3418 25.875V24.4375C3.3418 19.674 7.20862 15.8125 11.9786 15.8125C16.7485 15.8125 20.6154 19.674 20.6154 24.4375V25.875C20.6154 26.6689 19.9709 27.3125 19.1759 27.3125C18.3809 27.3125 17.7364 26.6689 17.7364 25.875V24.4375C17.7364 21.2619 15.1586 18.6875 11.9786 18.6875Z" fill="black" stroke="black" stroke-width="1.4375" stroke-linecap="round" stroke-linejoin="round"/>
<path fill-rule="evenodd" clip-rule="evenodd" d="M35.0098 34.5C31.8299 34.5 29.252 37.0744 29.252 40.25V41.6875C29.252 42.4814 28.6075 43.125 27.8125 43.125C27.0175 43.125 26.373 42.4814 26.373 41.6875V40.25C26.373 35.4865 30.2399 31.625 35.0098 31.625C39.7798 31.625 43.6466 35.4865 43.6466 40.25V41.6875C43.6466 42.4814 43.0021 43.125 42.2071 43.125C41.4122 43.125 40.7677 42.4814 40.7677 41.6875V40.25C40.7677 37.0744 38.1898 34.5 35.0098 34.5Z" fill="black" stroke="black" stroke-width="1.4375" stroke-linecap="round" stroke-linejoin="round"/>
</svg>
