<svg width="83" height="83" viewBox="0 0 83 83" fill="none" xmlns="http://www.w3.org/2000/svg">
<path d="M49.6615 49.2121C47.3497 51.076 44.4695 52.0925 41.4999 52.0925C38.5302 52.0925 35.65 51.076 33.3382 49.2121C32.6319 48.6251 31.7214 48.3426 30.8069 48.427C29.8925 48.5113 29.0489 48.9554 28.4619 49.6617C27.8749 50.3679 27.5925 51.2784 27.6768 52.1929C27.7611 53.1074 28.2053 53.9509 28.9115 54.5379C32.4436 57.4865 36.8988 59.1016 41.4999 59.1016C46.101 59.1016 50.5561 57.4865 54.0882 54.5379C54.7944 53.9509 55.2386 53.1074 55.3229 52.1929C55.4072 51.2784 55.1248 50.3679 54.5378 49.6617C54.2471 49.312 53.8904 49.0229 53.4881 48.8111C53.0857 48.5992 52.6456 48.4687 52.1928 48.427C51.2783 48.3426 50.3678 48.6251 49.6615 49.2121V49.2121ZM31.1249 40.4971L32.1278 39.4596L33.1307 40.4971C33.4522 40.8212 33.8347 41.0785 34.2561 41.2541C34.6775 41.4296 35.1296 41.52 35.5861 41.52C36.0426 41.52 36.4947 41.4296 36.9161 41.2541C37.3375 41.0785 37.72 40.8212 38.0415 40.4971C38.3657 40.1756 38.6229 39.7931 38.7985 39.3717C38.9741 38.9502 39.0645 38.4982 39.0645 38.0417C39.0645 37.5851 38.9741 37.1331 38.7985 36.7117C38.6229 36.2902 38.3657 35.9077 38.0415 35.5862L37.004 34.5833L38.0415 33.5804C38.6927 32.9108 39.0513 32.01 39.0383 31.0761C39.0254 30.1422 38.6419 29.2516 37.9724 28.6004C37.3028 27.9492 36.402 27.5906 35.468 27.6036C34.5341 27.6166 33.6436 28 32.9924 28.6696L31.9894 29.7071L31.1249 28.6696C30.4736 28 29.5831 27.6166 28.6492 27.6036C27.7152 27.5906 26.8144 27.9492 26.1449 28.6004C25.4753 29.2516 25.0918 30.1422 25.0789 31.0761C25.0659 32.01 25.4245 32.9108 26.0757 33.5804L27.1132 34.5833L26.0757 35.5862C25.7515 35.9077 25.4943 36.2902 25.3187 36.7117C25.1431 37.1331 25.0527 37.5851 25.0527 38.0417C25.0527 38.4982 25.1431 38.9502 25.3187 39.3717C25.4943 39.7931 25.7515 40.1756 26.0757 40.4971C26.3972 40.8212 26.7797 41.0785 27.2011 41.2541C27.6225 41.4296 28.0746 41.52 28.5311 41.52C28.9876 41.52 29.4397 41.4296 29.8611 41.2541C30.2825 41.0785 30.665 40.8212 30.9865 40.4971H31.1249ZM41.4999 6.91666C34.6599 6.91666 27.9736 8.94493 22.2864 12.745C16.5992 16.5451 12.1665 21.9462 9.54902 28.2655C6.93149 34.5848 6.24662 41.5384 7.58103 48.2469C8.91543 54.9554 12.2092 61.1175 17.0457 65.9541C21.8823 70.7907 28.0445 74.0844 34.753 75.4188C41.4615 76.7532 48.415 76.0684 54.7343 73.4508C61.0536 70.8333 66.4548 66.4007 70.2548 60.7135C74.0549 55.0263 76.0832 48.3399 76.0832 41.5C76.0832 36.9584 75.1887 32.4614 73.4507 28.2655C71.7127 24.0697 69.1653 20.2572 65.954 17.0459C62.7426 13.8345 58.9302 11.2871 54.7343 9.54916C50.5385 7.81118 46.0414 6.91666 41.4999 6.91666V6.91666ZM41.4999 69.1667C36.0279 69.1667 30.6788 67.544 26.1291 64.504C21.5793 61.4639 18.0332 57.143 15.9392 52.0876C13.8452 47.0321 13.2973 41.4693 14.3648 36.1025C15.4323 30.7357 18.0673 25.806 21.9366 21.9367C25.8058 18.0674 30.7355 15.4325 36.1024 14.3649C41.4692 13.2974 47.032 13.8453 52.0874 15.9393C57.1428 18.0333 61.4638 21.5795 64.5038 26.1292C67.5439 30.679 69.1665 36.028 69.1665 41.5C69.1665 48.8376 66.2516 55.8748 61.0631 61.0633C55.8746 66.2518 48.8375 69.1667 41.4999 69.1667V69.1667ZM58.7915 28.6696C58.47 28.3454 58.0875 28.0881 57.6661 27.9126C57.2447 27.737 56.7926 27.6466 56.3361 27.6466C55.8796 27.6466 55.4275 27.737 55.0061 27.9126C54.5847 28.0881 54.2022 28.3454 53.8807 28.6696L52.8778 29.7071L51.8749 28.6696C51.2236 28.0184 50.3404 27.6525 49.4194 27.6525C48.4985 27.6525 47.6152 28.0184 46.964 28.6696C46.3128 29.3208 45.947 30.204 45.947 31.125C45.947 32.0459 46.3128 32.9292 46.964 33.5804L48.0015 34.5833L46.964 35.5862C46.6399 35.9077 46.3826 36.2902 46.207 36.7117C46.0314 37.1331 45.9411 37.5851 45.9411 38.0417C45.9411 38.4982 46.0314 38.9502 46.207 39.3717C46.3826 39.7931 46.6399 40.1756 46.964 40.4971C47.2855 40.8212 47.668 41.0785 48.0894 41.2541C48.5109 41.4296 48.9629 41.52 49.4194 41.52C49.876 41.52 50.328 41.4296 50.7494 41.2541C51.1709 41.0785 51.5534 40.8212 51.8749 40.4971L52.8778 39.4596L53.8807 40.4971C54.2022 40.8212 54.5847 41.0785 55.0061 41.2541C55.4275 41.4296 55.8796 41.52 56.3361 41.52C56.7926 41.52 57.2447 41.4296 57.6661 41.2541C58.0875 41.0785 58.47 40.8212 58.7915 40.4971C59.1157 40.1756 59.3729 39.7931 59.5485 39.3717C59.7241 38.9502 59.8145 38.4982 59.8145 38.0417C59.8145 37.5851 59.7241 37.1331 59.5485 36.7117C59.3729 36.2902 59.1157 35.9077 58.7915 35.5862L57.754 34.5833L58.7915 33.5804C59.1157 33.2589 59.3729 32.8764 59.5485 32.455C59.7241 32.0336 59.8145 31.5815 59.8145 31.125C59.8145 30.6684 59.7241 30.2164 59.5485 29.795C59.3729 29.3736 59.1157 28.9911 58.7915 28.6696Z" fill="black"/>
</svg>
