<svg width="40" height="49" viewBox="0 0 40 49" fill="none" xmlns="http://www.w3.org/2000/svg">
<path d="M1.9165 5.7C1.9165 3.10426 3.99001 1 6.54782 1H34.3357C36.8935 1 38.967 3.10426 38.967 5.7V45.65C38.967 46.5303 38.4823 47.3367 37.711 47.7395C36.9397 48.1423 36.0113 48.0739 35.3054 47.5623L20.4418 36.7879L5.57811 47.5623C4.87227 48.0739 3.94384 48.1423 3.17256 47.7395C2.40128 47.3367 1.9165 46.5303 1.9165 45.65V5.7ZM34.3357 5.7L6.54782 5.7V41.0835L19.0958 31.9877C19.901 31.4041 20.9826 31.4041 21.7877 31.9877L34.3357 41.0835V5.7Z" fill="#0D0D0D" stroke="black" stroke-width="2" stroke-miterlimit="10" stroke-linecap="round" stroke-linejoin="round"/>
</svg>
