<svg width="47" height="46" viewBox="0 0 47 46" fill="none" xmlns="http://www.w3.org/2000/svg">
<path fill-rule="evenodd" clip-rule="evenodd" d="M9.58511 29.2737C10.2743 28.878 11.1543 29.1153 11.5505 29.8035C12.8227 32.0136 14.6347 33.8659 16.8174 35.1877C19.0002 36.5094 21.4827 37.2575 24.0332 37.3622C24.8276 37.3948 25.445 38.0643 25.4124 38.8576C25.3797 39.6508 24.7093 40.2674 23.915 40.2348C20.8786 40.1102 17.9233 39.2195 15.3248 37.646C12.7262 36.0725 10.5691 33.8674 9.05454 31.2364C8.65833 30.5481 8.89588 29.6694 9.58511 29.2737Z" fill="black" stroke="black" stroke-width="1.4375" stroke-linecap="round" stroke-linejoin="round"/>
<path fill-rule="evenodd" clip-rule="evenodd" d="M39.723 15.2888C39.0338 15.6845 38.1538 15.4472 37.7576 14.759C36.4854 12.5489 34.6734 10.6966 32.4907 9.37483C30.3079 8.05309 27.8254 7.30497 25.2749 7.20026C24.4805 7.16765 23.8631 6.49817 23.8957 5.70493C23.9284 4.91169 24.5988 4.29508 25.3931 4.32769C28.4295 4.45234 31.3848 5.34296 33.9833 6.91646C36.5819 8.48996 38.739 10.6951 40.2536 13.3261C40.6498 14.0144 40.4122 14.8931 39.723 15.2888Z" fill="black" stroke="black" stroke-width="1.4375" stroke-linecap="round" stroke-linejoin="round"/>
<path fill-rule="evenodd" clip-rule="evenodd" d="M12.4185 5.75C10.8285 5.75 9.53957 7.03718 9.53957 8.625C9.53957 10.2128 10.8285 11.5 12.4185 11.5C14.0085 11.5 15.2974 10.2128 15.2974 8.625C15.2974 7.03718 14.0085 5.75 12.4185 5.75ZM6.66064 8.625C6.66064 5.44936 9.23852 2.875 12.4185 2.875C15.5985 2.875 18.1764 5.44936 18.1764 8.625C18.1764 11.8006 15.5985 14.375 12.4185 14.375C9.23852 14.375 6.66064 11.8006 6.66064 8.625Z" fill="black" stroke="black" stroke-width="1.4375" stroke-linecap="round" stroke-linejoin="round"/>
<path fill-rule="evenodd" clip-rule="evenodd" d="M35.4498 21.5625C33.8598 21.5625 32.5708 22.8497 32.5708 24.4375C32.5708 26.0253 33.8598 27.3125 35.4498 27.3125C37.0397 27.3125 38.3287 26.0253 38.3287 24.4375C38.3287 22.8497 37.0397 21.5625 35.4498 21.5625ZM29.6919 24.4375C29.6919 21.2619 32.2698 18.6875 35.4498 18.6875C38.6297 18.6875 41.2076 21.2619 41.2076 24.4375C41.2076 27.6131 38.6297 30.1875 35.4498 30.1875C32.2698 30.1875 29.6919 27.6131 29.6919 24.4375Z" fill="black" stroke="black" stroke-width="1.4375" stroke-linecap="round" stroke-linejoin="round"/>
<path fill-rule="evenodd" clip-rule="evenodd" d="M12.4185 18.6875C9.23855 18.6875 6.66067 21.2619 6.66067 24.4375V25.875C6.66067 26.6689 6.0162 27.3125 5.2212 27.3125C4.42621 27.3125 3.78174 26.6689 3.78174 25.875V24.4375C3.78174 19.674 7.64856 15.8125 12.4185 15.8125C17.1885 15.8125 21.0553 19.674 21.0553 24.4375V25.875C21.0553 26.6689 20.4108 27.3125 19.6158 27.3125C18.8208 27.3125 18.1764 26.6689 18.1764 25.875V24.4375C18.1764 21.2619 15.5985 18.6875 12.4185 18.6875Z" fill="black" stroke="black" stroke-width="1.4375" stroke-linecap="round" stroke-linejoin="round"/>
<path fill-rule="evenodd" clip-rule="evenodd" d="M35.4498 34.5C32.2698 34.5 29.6919 37.0744 29.6919 40.25V41.6875C29.6919 42.4814 29.0474 43.125 28.2525 43.125C27.4575 43.125 26.813 42.4814 26.813 41.6875V40.25C26.813 35.4865 30.6798 31.625 35.4498 31.625C40.2197 31.625 44.0866 35.4865 44.0866 40.25V41.6875C44.0866 42.4814 43.4421 43.125 42.6471 43.125C41.8521 43.125 41.2076 42.4814 41.2076 41.6875V40.25C41.2076 37.0744 38.6297 34.5 35.4498 34.5Z" fill="black" stroke="black" stroke-width="1.4375" stroke-linecap="round" stroke-linejoin="round"/>
</svg>
